<svg xmlns="http://www.w3.org/2000/svg" data-name="Layer 2" viewBox="0 0 908.67 157.21"><path d="M48.5 125.22c-14.91 0-26.72-4.16-35.43-12.47C4.36 104.43 0 92.54 0 77.06v-28.9c0-15.48 4.36-27.37 13.07-35.69C21.78 4.16 33.6 0 48.5 0s26.23 4.04 34.31 12.13 12.13 19.18 12.13 33.28v1.03H72.58v-1.72c0-7.11-1.98-12.96-5.93-17.54-3.96-4.58-10.01-6.88-18.15-6.88s-14.33 2.47-18.92 7.4-6.88 11.64-6.88 20.12V77.4c0 8.37 2.29 15.05 6.88 20.04 4.58 4.99 10.89 7.48 18.92 7.48s14.19-2.32 18.15-6.97c3.96-4.64 5.93-10.46 5.93-17.46v-3.1h22.36v2.41c0 14.1-4.04 25.2-12.13 33.28s-19.52 12.13-34.31 12.13Zm65.71-2.41V37.5h21.33v9.63h3.1c1.26-3.44 3.35-5.96 6.28-7.57 2.92-1.6 6.33-2.41 10.23-2.41h10.32v19.26h-10.66c-5.5 0-10.04 1.46-13.59 4.39-3.56 2.92-5.33 7.43-5.33 13.5v48.5h-21.67Zm77.4 34.4v-18.92h46.44c3.21 0 4.82-1.72 4.82-5.16v-21.5h-3.1c-.92 1.95-2.35 3.9-4.3 5.85s-4.59 3.56-7.91 4.82c-3.33 1.26-7.57 1.89-12.73 1.89q-9.975 0-17.46-4.56c-4.99-3.04-8.86-7.25-11.61-12.64s-4.13-11.58-4.13-18.58V37.5h21.67v49.19c0 6.42 1.57 11.24 4.73 14.45 3.15 3.21 7.65 4.82 13.5 4.82 6.65 0 11.81-2.21 15.48-6.62s5.5-10.58 5.5-18.49V37.51h21.67v100.45c0 5.85-1.72 10.52-5.16 14.02s-8.03 5.25-13.76 5.25H191.6Zm96.66 0V37.5h21.33v10.32h3.1c1.95-3.32 4.99-6.28 9.12-8.86s10.03-3.87 17.72-3.87c6.88 0 13.24 1.69 19.09 5.07q8.775 5.07 14.1 14.88c3.55 6.54 5.33 14.45 5.33 23.74v2.75c0 9.29-1.78 17.2-5.33 23.74q-5.34 9.81-14.1 14.88c-5.85 3.38-12.21 5.07-19.09 5.07-5.16 0-9.49-.6-12.99-1.81-3.5-1.2-6.31-2.75-8.43-4.64q-3.18-2.835-5.07-5.76h-3.1v44.2h-21.67Zm44.72-50.91q10.14 0 16.77-6.45c4.41-4.3 6.62-10.58 6.62-18.83V79.3c0-8.26-2.24-14.53-6.71-18.83s-10.04-6.45-16.68-6.45-12.21 2.15-16.68 6.45-6.71 10.58-6.71 18.83v1.72c0 8.26 2.24 14.53 6.71 18.83q6.705 6.45 16.68 6.45m97.69 16.51c-5.62 0-10.18-1.75-13.67-5.25-3.5-3.5-5.25-8.17-5.25-14.02V55.38h-21.33V37.49h21.33V11.01h21.67V37.5h23.39v17.89h-23.39v44.38c0 3.44 1.6 5.16 4.82 5.16h16.51v17.89h-24.08Zm86.35 2.41c-8.49 0-16.11-1.72-22.88-5.16s-12.1-8.43-16-14.96c-3.9-6.54-5.85-14.39-5.85-23.56v-2.75c0-9.17 1.95-17.03 5.85-23.56 3.9-6.54 9.23-11.52 16-14.96 6.76-3.44 14.39-5.16 22.88-5.16s16.11 1.72 22.88 5.16c6.76 3.44 12.1 8.43 16 14.96 3.9 6.54 5.85 14.39 5.85 23.56v2.75c0 9.18-1.95 17.03-5.85 23.56-3.9 6.54-9.23 11.52-16 14.96s-14.39 5.16-22.88 5.16m0-19.27c6.65 0 12.15-2.15 16.51-6.45s6.54-10.46 6.54-18.49v-1.72c0-8.03-2.15-14.19-6.45-18.49s-9.83-6.45-16.6-6.45-12.15 2.15-16.51 6.45-6.54 10.46-6.54 18.49v1.72c0 8.03 2.18 14.19 6.54 18.49s9.86 6.45 16.51 6.45m97.18 18.23q-9.975 0-17.46-4.56c-4.99-3.04-8.86-7.25-11.61-12.64s-4.13-11.58-4.13-18.58V37.49h21.67v49.19c0 6.42 1.57 11.24 4.73 14.45 3.15 3.21 7.65 4.82 13.5 4.82 6.65 0 11.81-2.21 15.48-6.62s5.5-10.58 5.5-18.49V37.5h21.67v85.31h-21.33v-11.18h-3.1q-2.07 4.305-7.74 8.43c-5.67 4.125-9.52 4.13-17.2 4.13Zm73.44-1.37V2.41h21.67v66.56h3.1l28.21-31.48h28.21l-39.39 41.28 40.76 44.03h-27.86l-29.93-33.88h-3.1v33.88h-21.67Zm135.88 2.41c-8.49 0-15.97-1.81-22.45-5.42s-11.52-8.71-15.14-15.31c-3.61-6.59-5.42-14.36-5.42-23.31v-2.06c0-8.94 1.78-16.71 5.33-23.31 3.55-6.59 8.54-11.7 14.96-15.31s13.87-5.42 22.36-5.42 15.65 1.87 21.84 5.59c6.19 3.73 11.01 8.89 14.45 15.48 3.44 6.6 5.16 14.25 5.16 22.96v7.4h-62.09q.345 8.775 6.54 14.28c4.13 3.67 9.17 5.5 15.14 5.5s10.55-1.32 13.42-3.96 5.04-5.56 6.54-8.77l17.72 9.29c-1.61 2.98-3.93 6.22-6.97 9.72s-7.08 6.48-12.13 8.94-11.47 3.7-19.26 3.7Zm-20.81-54.87h39.9c-.46-4.93-2.44-8.88-5.93-11.87-3.5-2.98-8.06-4.47-13.67-4.47s-10.49 1.49-13.93 4.47-5.56 6.94-6.36 11.87Zm92.02-42.83c-3.9 0-7.2-1.26-9.89-3.78-2.7-2.52-4.04-5.85-4.04-9.98s1.35-7.45 4.04-9.98c2.69-2.52 5.99-3.78 9.89-3.78s7.34 1.26 9.98 3.78 3.96 5.85 3.96 9.98-1.32 7.46-3.96 9.98-5.96 3.78-9.98 3.78m-10.84 95.29V37.5h21.67v85.31z" data-name="Layer 2"/></svg>