<svg xmlns="http://www.w3.org/2000/svg" data-name="Layer 2" viewBox="0 0 722.9 157.21"><path d="M48.5 0C33.59 0 21.78 4.16 13.07 12.47 4.36 20.79 0 32.68 0 48.16v28.9c0 15.48 4.36 27.38 13.07 35.69s20.52 12.47 35.43 12.47 26.23-4.04 34.31-12.13 12.13-19.18 12.13-33.28V77.4H72.58v3.1c0 7-1.98 12.81-5.93 17.46s-10.01 6.97-18.15 6.97-14.33-2.49-18.92-7.48-6.88-11.67-6.88-20.04V47.83c0-8.48 2.29-15.19 6.88-20.12 4.58-4.93 10.89-7.4 18.92-7.4s14.19 2.3 18.15 6.88c3.96 4.59 5.93 10.44 5.93 17.54v1.72h22.36v-1.03c0-14.1-4.04-25.2-12.13-33.28S63.3 0 48.5 0m96.41 39.56c-2.92 1.61-5.02 4.13-6.28 7.57h-3.1V37.5H114.2v85.31h21.67v-48.5c0-6.08 1.78-10.58 5.33-13.5s8.08-4.39 13.59-4.39h10.66V37.16h-10.32c-3.9 0-7.31.8-10.23 2.41Zm97.61 41.28c0 7.91-1.84 14.08-5.5 18.49-3.67 4.42-8.83 6.62-15.48 6.62-5.85 0-10.35-1.6-13.5-4.82-3.16-3.21-4.73-8.03-4.73-14.45V37.49h-21.67V88.4c0 7 1.38 13.19 4.13 18.58s6.62 9.61 11.61 12.64q7.485 4.56 17.46 4.56c5.16 0 9.4-.63 12.73-1.89 3.32-1.26 5.96-2.86 7.91-4.82 1.95-1.95 3.38-3.9 4.3-5.85h3.1v21.5c0 3.44-1.61 5.16-4.82 5.16h-46.44v18.92h53.66c5.73 0 10.32-1.75 13.76-5.25s5.16-8.17 5.16-14.02V37.5h-21.67v43.34Zm116.1-40.68c-5.85-3.38-12.21-5.07-19.09-5.07-7.68 0-13.59 1.29-17.72 3.87s-7.17 5.53-9.12 8.86h-3.1V37.5h-21.33v119.71h21.67v-44.2h3.1q1.89 2.925 5.07 5.76c2.12 1.89 4.93 3.44 8.43 4.64s7.83 1.81 12.99 1.81c6.88 0 13.24-1.69 19.09-5.07q8.775-5.07 14.1-14.88c3.55-6.54 5.33-14.45 5.33-23.74v-2.75c0-9.29-1.78-17.2-5.33-23.74-3.56-6.54-8.26-11.49-14.1-14.88Zm-2.24 40.85c0 8.26-2.21 14.53-6.62 18.83q-6.63 6.45-16.77 6.45c-10.14 0-12.21-2.15-16.68-6.45s-6.71-10.58-6.71-18.83v-1.72c0-8.26 2.24-14.53 6.71-18.83q6.705-6.45 16.68-6.45c9.975 0 12.21 2.15 16.68 6.45s6.71 10.58 6.71 18.83zm77.06-70h-21.67V37.5h-21.33v17.89h21.33v48.16c0 5.85 1.75 10.52 5.25 14.02s8.05 5.25 13.67 5.25h24.08v-17.89h-16.51c-3.21 0-4.82-1.72-4.82-5.16V55.39h23.39V37.5h-23.39zM539.9 40.25c-6.77-3.44-14.39-5.16-22.88-5.16s-16.11 1.72-22.88 5.16-12.1 8.43-16 14.96c-3.9 6.54-5.85 14.39-5.85 23.56v2.75c0 9.17 1.95 17.03 5.85 23.56 3.9 6.54 9.23 11.52 16 14.96 6.76 3.44 14.39 5.16 22.88 5.16s16.11-1.72 22.88-5.16c6.76-3.44 12.1-8.43 16-14.96 3.9-6.54 5.85-14.39 5.85-23.56v-2.75c0-9.17-1.95-17.03-5.85-23.56-3.9-6.54-9.23-11.52-16-14.96m.17 40.76c0 8.03-2.18 14.19-6.54 18.49s-9.86 6.45-16.51 6.45-12.16-2.15-16.51-6.45c-4.36-4.3-6.54-10.46-6.54-18.49v-1.72c0-8.02 2.18-14.19 6.54-18.49s9.86-6.45 16.51-6.45 12.3 2.15 16.6 6.45 6.45 10.46 6.45 18.49zm72.33-41.45c-2.92 1.61-5.02 4.13-6.28 7.57h-3.1V37.5h-21.33v85.31h21.67v-48.5c0-6.08 1.78-10.58 5.33-13.5s8.08-4.39 13.59-4.39h10.66V37.16h-10.32c-3.9 0-7.31.8-10.23 2.41Zm106.27-1.73h-30.85v23.44C692 62.75 695 66.73 695 71.42c0 4.09-2.28 7.65-5.64 9.48l5.71 21.58h-7.25v20.28h35.08l-4.23-84.94Zm-73.11 84.94h35.08v-20.28h-7.25l5.71-21.58a10.76 10.76 0 0 1-5.64-9.48c0-4.69 3-8.67 7.18-10.15V37.84h-30.85l-4.23 84.94Zm32.11-92.63.04-11.32h-27.05l-.55 11.32zm35.21 0h5.28l-.22-4.26-.08-.29-.33-6.77h-27.09l.04 11.32z" data-name="Layer 2" style="fill:#fff"/></svg>